<svg width="602" height="226" viewBox="0 0 602 226" fill="none" xmlns="http://www.w3.org/2000/svg">
<g filter="url(#filter0_d_232_596)">
<path d="M0 33H578C586.284 33 593 39.7157 593 48V199C593 207.284 586.284 214 578 214H15C6.71575 214 0 207.284 0 199V33Z" fill="#131D47"/>
</g>
<path d="M0 10C0 4.47715 4.47715 0 10 0H157C162.523 0 167 4.47715 167 10V33H0V10Z" fill="#131D47"/>
<path d="M41.0557 23.592H34.0717L32.2717 27H29.4157L38.3437 10.296H41.5117L44.5357 27H41.6557L41.0557 23.592ZM40.6957 21.456L39.3277 13.608L35.1997 21.456H40.6957ZM47.398 20.376C47.638 19.016 48.118 17.824 48.838 16.8C49.574 15.76 50.478 14.96 51.55 14.4C52.638 13.84 53.814 13.56 55.078 13.56C56.678 13.56 57.934 13.944 58.846 14.712C59.758 15.464 60.278 16.544 60.406 17.952H57.454C57.326 17.296 57.03 16.784 56.566 16.416C56.102 16.048 55.47 15.864 54.67 15.864C53.55 15.864 52.59 16.264 51.79 17.064C50.99 17.848 50.462 18.952 50.206 20.376C50.126 20.888 50.086 21.304 50.086 21.624C50.086 22.68 50.35 23.496 50.878 24.072C51.406 24.632 52.142 24.912 53.086 24.912C54.67 24.912 55.838 24.216 56.59 22.824H59.542C58.918 24.168 58.006 25.24 56.806 26.04C55.622 26.824 54.246 27.216 52.678 27.216C51.014 27.216 49.694 26.744 48.718 25.8C47.742 24.84 47.254 23.544 47.254 21.912C47.254 21.416 47.302 20.904 47.398 20.376ZM65.3647 23.328C65.3327 23.552 65.3167 23.696 65.3167 23.76C65.3167 24.096 65.4207 24.344 65.6287 24.504C65.8367 24.648 66.1807 24.72 66.6607 24.72H68.3407L67.9327 27H65.7727C64.7167 27 63.9087 26.792 63.3487 26.376C62.7887 25.944 62.5087 25.264 62.5087 24.336C62.5087 23.984 62.5407 23.648 62.6047 23.328L63.9007 16.008H62.3407L62.7247 13.776H64.3087L64.8847 10.488H67.6447L67.0687 13.776H70.2607L69.8767 16.008H66.6607L65.3647 23.328ZM84.7583 13.776L82.4303 27H79.6943L79.9583 25.44C79.4303 25.984 78.7903 26.416 78.0383 26.736C77.3023 27.04 76.5423 27.192 75.7583 27.192C74.3663 27.192 73.2543 26.816 72.4223 26.064C71.5903 25.312 71.1743 24.248 71.1743 22.872C71.1743 22.504 71.2143 22.064 71.2943 21.552L72.6623 13.776H75.3743L74.0783 21.144C74.0143 21.592 73.9823 21.912 73.9823 22.104C73.9823 22.984 74.2223 23.656 74.7023 24.12C75.1983 24.584 75.8783 24.816 76.7423 24.816C77.7503 24.816 78.6063 24.52 79.3103 23.928C80.0143 23.32 80.4783 22.448 80.7023 21.312L82.0223 13.776H84.7583ZM86.3043 20.328C86.5443 19 87.0243 17.824 87.7443 16.8C88.4803 15.776 89.3763 14.984 90.4323 14.424C91.4883 13.848 92.5923 13.56 93.7443 13.56C94.7843 13.56 95.6563 13.768 96.3603 14.184C97.0643 14.584 97.5923 15.088 97.9443 15.696L98.2803 13.776H101.04L98.7123 27H95.9523L96.3123 25.032C95.7363 25.656 95.0083 26.176 94.1283 26.592C93.2643 27.008 92.3203 27.216 91.2963 27.216C90.3043 27.216 89.4163 26.992 88.6323 26.544C87.8643 26.096 87.2563 25.464 86.8083 24.648C86.3763 23.816 86.1603 22.864 86.1603 21.792C86.1603 21.312 86.2083 20.824 86.3043 20.328ZM97.1283 20.376C97.1923 20.072 97.2243 19.744 97.2243 19.392C97.2243 18.32 96.9043 17.48 96.2643 16.872C95.6403 16.248 94.8563 15.936 93.9123 15.936C93.2083 15.936 92.5203 16.112 91.8483 16.464C91.1763 16.8 90.5923 17.304 90.0963 17.976C89.6003 18.632 89.2723 19.416 89.1123 20.328C89.0483 20.632 89.0163 20.96 89.0163 21.312C89.0163 22.4 89.3283 23.264 89.9523 23.904C90.5923 24.528 91.3843 24.84 92.3283 24.84C93.0323 24.84 93.7203 24.664 94.3923 24.312C95.0643 23.96 95.6483 23.448 96.1443 22.776C96.6403 22.088 96.9683 21.288 97.1283 20.376ZM108.186 9.24L105.042 27H102.306L105.45 9.24H108.186ZM112.666 12.024C112.234 12.024 111.882 11.888 111.61 11.616C111.338 11.344 111.202 11 111.202 10.584C111.202 10.024 111.41 9.544 111.826 9.144C112.258 8.728 112.746 8.52 113.29 8.52C113.722 8.52 114.066 8.656 114.322 8.928C114.594 9.2 114.73 9.544 114.73 9.96C114.73 10.52 114.522 11.008 114.106 11.424C113.69 11.824 113.21 12.024 112.666 12.024ZM113.698 13.776L111.37 27H108.634L110.962 13.776H113.698ZM118.802 23.328C118.77 23.552 118.754 23.696 118.754 23.76C118.754 24.096 118.858 24.344 119.066 24.504C119.274 24.648 119.618 24.72 120.098 24.72H121.778L121.37 27H119.21C118.154 27 117.346 26.792 116.786 26.376C116.226 25.944 115.946 25.264 115.946 24.336C115.946 23.984 115.978 23.648 116.042 23.328L117.338 16.008H115.778L116.162 13.776H117.746L118.322 10.488H121.082L120.506 13.776H123.698L123.314 16.008H120.098L118.802 23.328ZM131.956 13.56C133.604 13.56 134.916 14.024 135.892 14.952C136.884 15.88 137.38 17.128 137.38 18.696C137.38 19.064 137.34 19.504 137.26 20.016C137.196 20.368 137.084 20.8 136.924 21.312H126.82C126.804 21.424 126.796 21.592 126.796 21.816C126.796 22.76 127.084 23.512 127.66 24.072C128.252 24.632 129.02 24.912 129.964 24.912C131.452 24.912 132.596 24.296 133.396 23.064H136.348C135.74 24.28 134.844 25.28 133.66 26.064C132.476 26.832 131.108 27.216 129.556 27.216C128.452 27.216 127.484 27 126.652 26.568C125.82 26.136 125.172 25.52 124.708 24.72C124.244 23.904 124.012 22.952 124.012 21.864C124.012 21.4 124.06 20.904 124.156 20.376C124.396 19.016 124.884 17.824 125.62 16.8C126.356 15.76 127.268 14.96 128.356 14.4C129.46 13.84 130.66 13.56 131.956 13.56ZM134.524 19.344C134.556 19.056 134.572 18.848 134.572 18.72C134.572 17.84 134.276 17.144 133.684 16.632C133.108 16.12 132.356 15.864 131.428 15.864C130.452 15.864 129.572 16.176 128.788 16.8C128.004 17.424 127.468 18.272 127.18 19.344H134.524ZM134.956 10.224L129.172 12.84L129.532 10.824L135.364 7.896L134.956 10.224Z" fill="white"/>
<path d="M0 109H153.5C160.956 109 167 115.044 167 122.5V122.5C167 129.956 160.956 136 153.5 136H0V109Z" fill="#3741EC"/>
<defs>
<filter id="filter0_d_232_596" x="0" y="33" width="602" height="193" filterUnits="userSpaceOnUse" color-interpolation-filters="sRGB">
<feFlood flood-opacity="0" result="BackgroundImageFix"/>
<feColorMatrix in="SourceAlpha" type="matrix" values="0 0 0 0 0 0 0 0 0 0 0 0 0 0 0 0 0 0 127 0" result="hardAlpha"/>
<feOffset dx="5" dy="8"/>
<feGaussianBlur stdDeviation="2"/>
<feComposite in2="hardAlpha" operator="out"/>
<feColorMatrix type="matrix" values="0 0 0 0 0 0 0 0 0 0 0 0 0 0 0 0 0 0 0.25 0"/>
<feBlend mode="normal" in2="BackgroundImageFix" result="effect1_dropShadow_232_596"/>
<feBlend mode="normal" in="SourceGraphic" in2="effect1_dropShadow_232_596" result="shape"/>
</filter>
</defs>
</svg>
