<svg width="322" height="226" viewBox="0 0 322 226" fill="none" xmlns="http://www.w3.org/2000/svg">
<g filter="url(#filter0_d_232_606)">
<path d="M8 33H298C306.284 33 313 39.7157 313 48V199C313 207.284 306.284 214 298 214H23C14.7157 214 8 207.284 8 199V33Z" fill="#131D47"/>
</g>
<path d="M8 10C8 4.47715 12.4772 0 18 0H132C137.523 0 142 4.47715 142 10V33H8V10Z" fill="#131D47"/>
<path d="M45.557 10.32C47.237 10.32 48.509 10.696 49.373 11.448C50.237 12.2 50.669 13.176 50.669 14.376C50.669 14.584 50.637 14.896 50.573 15.312C50.381 16.384 49.885 17.368 49.085 18.264C48.301 19.16 47.229 19.768 45.869 20.088L48.773 27H45.509L42.869 20.328H40.757L39.581 27H36.845L39.797 10.32H45.557ZM47.765 15.312C47.813 15.072 47.837 14.84 47.837 14.616C47.837 13.928 47.613 13.4 47.165 13.032C46.733 12.648 46.069 12.456 45.173 12.456H42.149L41.141 18.168H44.165C45.189 18.168 46.005 17.912 46.613 17.4C47.237 16.888 47.621 16.192 47.765 15.312ZM60.073 13.56C61.721 13.56 63.033 14.024 64.009 14.952C65.001 15.88 65.497 17.128 65.497 18.696C65.497 19.064 65.457 19.504 65.377 20.016C65.313 20.368 65.201 20.8 65.041 21.312H54.937C54.921 21.424 54.913 21.592 54.913 21.816C54.913 22.76 55.201 23.512 55.777 24.072C56.369 24.632 57.137 24.912 58.081 24.912C59.569 24.912 60.713 24.296 61.513 23.064H64.465C63.857 24.28 62.961 25.28 61.777 26.064C60.593 26.832 59.225 27.216 57.673 27.216C56.569 27.216 55.601 27 54.769 26.568C53.937 26.136 53.289 25.52 52.825 24.72C52.361 23.904 52.129 22.952 52.129 21.864C52.129 21.4 52.177 20.904 52.273 20.376C52.513 19.016 53.001 17.824 53.737 16.8C54.473 15.76 55.385 14.96 56.473 14.4C57.577 13.84 58.777 13.56 60.073 13.56ZM62.641 19.344C62.673 19.056 62.689 18.848 62.689 18.72C62.689 17.84 62.393 17.144 61.801 16.632C61.225 16.12 60.473 15.864 59.545 15.864C58.569 15.864 57.689 16.176 56.905 16.8C56.121 17.424 55.585 18.272 55.297 19.344H62.641ZM75.8695 13.56C77.2615 13.56 78.3655 13.936 79.1815 14.688C80.0135 15.424 80.4295 16.488 80.4295 17.88C80.4295 18.232 80.3895 18.672 80.3095 19.2L78.9175 27H76.2055L77.5255 19.608C77.5895 19.16 77.6215 18.84 77.6215 18.648C77.6215 17.768 77.3735 17.096 76.8775 16.632C76.3975 16.168 75.7255 15.936 74.8615 15.936C73.8215 15.936 72.9415 16.256 72.2215 16.896C71.5175 17.52 71.0695 18.424 70.8775 19.608V19.536L69.5575 27H66.8215L69.1495 13.776H71.8855L71.6215 15.312C72.1655 14.768 72.8055 14.344 73.5415 14.04C74.2935 13.72 75.0695 13.56 75.8695 13.56ZM82.6715 20.328C82.9115 19 83.3915 17.824 84.1115 16.8C84.8475 15.776 85.7435 14.984 86.7995 14.424C87.8555 13.848 88.9675 13.56 90.1355 13.56C90.9995 13.56 91.8155 13.752 92.5835 14.136C93.3515 14.504 93.9355 15 94.3355 15.624L95.4635 9.24H98.2235L95.0795 27H92.3195L92.6795 25.008C92.1035 25.664 91.3835 26.2 90.5195 26.616C89.6715 27.016 88.7355 27.216 87.7115 27.216C86.7035 27.216 85.8075 26.992 85.0235 26.544C84.2395 26.096 83.6235 25.464 83.1755 24.648C82.7435 23.816 82.5275 22.864 82.5275 21.792C82.5275 21.312 82.5755 20.824 82.6715 20.328ZM93.4955 20.376C93.5595 20.072 93.5915 19.744 93.5915 19.392C93.5915 18.32 93.2715 17.48 92.6315 16.872C92.0075 16.248 91.2235 15.936 90.2795 15.936C89.5755 15.936 88.8875 16.112 88.2155 16.464C87.5435 16.8 86.9595 17.304 86.4635 17.976C85.9675 18.632 85.6395 19.416 85.4795 20.328C85.4155 20.632 85.3835 20.96 85.3835 21.312C85.3835 22.4 85.6955 23.264 86.3195 23.904C86.9595 24.528 87.7515 24.84 88.6955 24.84C89.3995 24.84 90.0875 24.664 90.7595 24.312C91.4315 23.96 92.0155 23.448 92.5115 22.776C93.0075 22.088 93.3355 21.288 93.4955 20.376ZM112.977 13.776L110.649 27H107.913L108.177 25.44C107.649 25.984 107.009 26.416 106.257 26.736C105.521 27.04 104.761 27.192 103.977 27.192C102.585 27.192 101.473 26.816 100.641 26.064C99.8091 25.312 99.3931 24.248 99.3931 22.872C99.3931 22.504 99.4331 22.064 99.5131 21.552L100.881 13.776H103.593L102.297 21.144C102.233 21.592 102.201 21.912 102.201 22.104C102.201 22.984 102.441 23.656 102.921 24.12C103.417 24.584 104.097 24.816 104.961 24.816C105.969 24.816 106.825 24.52 107.529 23.928C108.233 23.32 108.697 22.448 108.921 21.312L110.241 13.776H112.977Z" fill="white"/>
<defs>
<filter id="filter0_d_232_606" x="8" y="33" width="314" height="193" filterUnits="userSpaceOnUse" color-interpolation-filters="sRGB">
<feFlood flood-opacity="0" result="BackgroundImageFix"/>
<feColorMatrix in="SourceAlpha" type="matrix" values="0 0 0 0 0 0 0 0 0 0 0 0 0 0 0 0 0 0 127 0" result="hardAlpha"/>
<feOffset dx="5" dy="8"/>
<feGaussianBlur stdDeviation="2"/>
<feComposite in2="hardAlpha" operator="out"/>
<feColorMatrix type="matrix" values="0 0 0 0 0 0 0 0 0 0 0 0 0 0 0 0 0 0 0.25 0"/>
<feBlend mode="normal" in2="BackgroundImageFix" result="effect1_dropShadow_232_606"/>
<feBlend mode="normal" in="SourceGraphic" in2="effect1_dropShadow_232_606" result="shape"/>
</filter>
</defs>
</svg>
