<svg width="430" height="685" viewBox="0 0 430 685" fill="none" xmlns="http://www.w3.org/2000/svg">
<g filter="url(#filter0_d_281_6647)">
<path d="M0 33H411C416.523 33 421 37.4772 421 43V663C421 668.523 416.523 673 411 673H10C4.47716 673 0 668.523 0 663V33Z" fill="#2F2075"/>
</g>
<path d="M7 47C7 41.4772 11.4772 37 17 37H405C410.523 37 415 41.4772 415 47V657C415 662.523 410.523 667 405 667H17C11.4771 667 7 662.523 7 657V47Z" fill="#E9E9E9"/>
<path d="M0 10C0 4.47715 4.47715 0 10 0H224C229.523 0 234 4.47715 234 10V33H0V10Z" fill="#2F2075"/>
<path d="M40.5534 15.288C40.4094 16.136 40.0654 16.936 39.5214 17.688C38.9934 18.44 38.2494 19.056 37.2894 19.536C36.3294 20 35.1614 20.232 33.7854 20.232H30.7614L29.5614 27H26.8254L29.7774 10.32H35.5374C37.2174 10.32 38.4894 10.696 39.3534 11.448C40.2174 12.184 40.6494 13.152 40.6494 14.352C40.6494 14.56 40.6174 14.872 40.5534 15.288ZM34.1694 18.096C35.2094 18.096 36.0254 17.848 36.6174 17.352C37.2254 16.856 37.6014 16.168 37.7454 15.288C37.7934 15.048 37.8174 14.816 37.8174 14.592C37.8174 13.92 37.5934 13.4 37.1454 13.032C36.7134 12.648 36.0494 12.456 35.1534 12.456H32.1294L31.1454 18.096H34.1694ZM45.7549 16.104C46.2989 15.304 46.9389 14.68 47.6749 14.232C48.4269 13.784 49.2589 13.56 50.1709 13.56L49.6669 16.392H48.9709C47.9149 16.392 47.0669 16.656 46.4269 17.184C45.7869 17.712 45.3389 18.624 45.0829 19.92L43.8349 27H41.0989L43.4269 13.776H46.1629L45.7549 16.104ZM56.0938 27.216C54.9738 27.216 53.9898 26.984 53.1418 26.52C52.2938 26.056 51.6298 25.4 51.1498 24.552C50.6858 23.704 50.4538 22.736 50.4538 21.648C50.4538 20.16 50.7978 18.8 51.4858 17.568C52.1898 16.336 53.1498 15.36 54.3658 14.64C55.5978 13.92 56.9658 13.56 58.4698 13.56C59.5898 13.56 60.5818 13.8 61.4458 14.28C62.3098 14.744 62.9818 15.4 63.4618 16.248C63.9578 17.08 64.2058 18.048 64.2058 19.152C64.2058 20.64 63.8458 22 63.1258 23.232C62.4058 24.464 61.4298 25.44 60.1978 26.16C58.9658 26.864 57.5978 27.216 56.0938 27.216ZM56.4298 24.912C57.3418 24.912 58.1738 24.656 58.9258 24.144C59.6938 23.616 60.2938 22.928 60.7258 22.08C61.1578 21.216 61.3738 20.296 61.3738 19.32C61.3738 18.216 61.0618 17.368 60.4378 16.776C59.8138 16.168 59.0298 15.864 58.0858 15.864C57.1578 15.864 56.3258 16.128 55.5898 16.656C54.8698 17.168 54.3018 17.864 53.8858 18.744C53.4858 19.608 53.2858 20.536 53.2858 21.528C53.2858 22.6 53.5738 23.432 54.1498 24.024C54.7418 24.616 55.5018 24.912 56.4298 24.912ZM65.8785 20.376C66.1185 19.016 66.5985 17.824 67.3185 16.8C68.0545 15.76 68.9585 14.96 70.0305 14.4C71.1185 13.84 72.2945 13.56 73.5585 13.56C75.1585 13.56 76.4145 13.944 77.3265 14.712C78.2385 15.464 78.7585 16.544 78.8865 17.952H75.9345C75.8065 17.296 75.5105 16.784 75.0465 16.416C74.5825 16.048 73.9505 15.864 73.1505 15.864C72.0305 15.864 71.0705 16.264 70.2705 17.064C69.4705 17.848 68.9425 18.952 68.6865 20.376C68.6065 20.888 68.5665 21.304 68.5665 21.624C68.5665 22.68 68.8305 23.496 69.3585 24.072C69.8865 24.632 70.6225 24.912 71.5665 24.912C73.1505 24.912 74.3185 24.216 75.0705 22.824H78.0225C77.3985 24.168 76.4865 25.24 75.2865 26.04C74.1025 26.824 72.7265 27.216 71.1585 27.216C69.4945 27.216 68.1745 26.744 67.1985 25.8C66.2225 24.84 65.7345 23.544 65.7345 21.912C65.7345 21.416 65.7825 20.904 65.8785 20.376ZM89.2211 13.56C90.5491 13.56 91.6131 13.936 92.4131 14.688C93.2131 15.424 93.6131 16.48 93.6131 17.856C93.6131 18.224 93.5731 18.672 93.4931 19.2L92.1011 27H89.3891L90.7091 19.608C90.7731 19.16 90.8051 18.84 90.8051 18.648C90.8051 17.768 90.5571 17.096 90.0611 16.632C89.5811 16.168 88.9091 15.936 88.0451 15.936C87.0051 15.936 86.1251 16.256 85.4051 16.896C84.7011 17.52 84.2531 18.424 84.0611 19.608V19.56L82.7411 27H80.0051L83.1491 9.24H85.8851L84.8051 15.312C85.3651 14.752 86.0291 14.32 86.7971 14.016C87.5651 13.712 88.3731 13.56 89.2211 13.56ZM95.8551 20.328C96.0951 19 96.5751 17.824 97.2951 16.8C98.0311 15.776 98.9271 14.984 99.9831 14.424C101.039 13.848 102.143 13.56 103.295 13.56C104.335 13.56 105.207 13.768 105.911 14.184C106.615 14.584 107.143 15.088 107.495 15.696L107.831 13.776H110.591L108.263 27H105.503L105.863 25.032C105.287 25.656 104.559 26.176 103.679 26.592C102.815 27.008 101.871 27.216 100.847 27.216C99.8551 27.216 98.9671 26.992 98.1831 26.544C97.4151 26.096 96.8071 25.464 96.3591 24.648C95.9271 23.816 95.7111 22.864 95.7111 21.792C95.7111 21.312 95.7591 20.824 95.8551 20.328ZM106.679 20.376C106.743 20.072 106.775 19.744 106.775 19.392C106.775 18.32 106.455 17.48 105.815 16.872C105.191 16.248 104.407 15.936 103.463 15.936C102.759 15.936 102.071 16.112 101.399 16.464C100.727 16.8 100.143 17.304 99.6471 17.976C99.1511 18.632 98.8231 19.416 98.6631 20.328C98.5991 20.632 98.5671 20.96 98.5671 21.312C98.5671 22.4 98.8791 23.264 99.5031 23.904C100.143 24.528 100.935 24.84 101.879 24.84C102.583 24.84 103.271 24.664 103.943 24.312C104.615 23.96 105.199 23.448 105.695 22.776C106.191 22.088 106.519 21.288 106.679 20.376ZM115.889 12.024C115.457 12.024 115.105 11.888 114.833 11.616C114.561 11.344 114.425 11 114.425 10.584C114.425 10.024 114.633 9.544 115.049 9.144C115.481 8.728 115.969 8.52 116.513 8.52C116.945 8.52 117.289 8.656 117.545 8.928C117.817 9.2 117.953 9.544 117.953 9.96C117.953 10.52 117.745 11.008 117.329 11.424C116.913 11.824 116.433 12.024 115.889 12.024ZM116.921 13.776L114.593 27H111.857L114.185 13.776H116.921ZM127.233 13.56C128.625 13.56 129.729 13.936 130.545 14.688C131.377 15.424 131.793 16.488 131.793 17.88C131.793 18.232 131.753 18.672 131.673 19.2L130.281 27H127.569L128.889 19.608C128.953 19.16 128.985 18.84 128.985 18.648C128.985 17.768 128.737 17.096 128.241 16.632C127.761 16.168 127.089 15.936 126.225 15.936C125.185 15.936 124.305 16.256 123.585 16.896C122.881 17.52 122.433 18.424 122.241 19.608V19.536L120.921 27H118.185L120.513 13.776H123.249L122.985 15.312C123.529 14.768 124.169 14.344 124.905 14.04C125.657 13.72 126.433 13.56 127.233 13.56ZM141.23 20.376C141.47 19.016 141.95 17.824 142.67 16.8C143.406 15.76 144.31 14.96 145.382 14.4C146.47 13.84 147.646 13.56 148.91 13.56C150.51 13.56 151.766 13.944 152.678 14.712C153.59 15.464 154.11 16.544 154.238 17.952H151.286C151.158 17.296 150.862 16.784 150.398 16.416C149.934 16.048 149.302 15.864 148.502 15.864C147.382 15.864 146.422 16.264 145.622 17.064C144.822 17.848 144.294 18.952 144.038 20.376C143.958 20.888 143.918 21.304 143.918 21.624C143.918 22.68 144.182 23.496 144.71 24.072C145.238 24.632 145.974 24.912 146.918 24.912C148.502 24.912 149.67 24.216 150.422 22.824H153.374C152.75 24.168 151.838 25.24 150.638 26.04C149.454 26.824 148.078 27.216 146.51 27.216C144.846 27.216 143.526 26.744 142.55 25.8C141.574 24.84 141.086 23.544 141.086 21.912C141.086 21.416 141.134 20.904 141.23 20.376ZM161.141 27.216C160.021 27.216 159.037 26.984 158.189 26.52C157.341 26.056 156.677 25.4 156.197 24.552C155.733 23.704 155.501 22.736 155.501 21.648C155.501 20.16 155.845 18.8 156.533 17.568C157.237 16.336 158.197 15.36 159.413 14.64C160.645 13.92 162.013 13.56 163.517 13.56C164.637 13.56 165.629 13.8 166.493 14.28C167.357 14.744 168.029 15.4 168.509 16.248C169.005 17.08 169.253 18.048 169.253 19.152C169.253 20.64 168.893 22 168.173 23.232C167.453 24.464 166.477 25.44 165.245 26.16C164.013 26.864 162.645 27.216 161.141 27.216ZM161.477 24.912C162.389 24.912 163.221 24.656 163.973 24.144C164.741 23.616 165.341 22.928 165.773 22.08C166.205 21.216 166.421 20.296 166.421 19.32C166.421 18.216 166.109 17.368 165.485 16.776C164.861 16.168 164.077 15.864 163.133 15.864C162.205 15.864 161.373 16.128 160.637 16.656C159.917 17.168 159.349 17.864 158.933 18.744C158.533 19.608 158.333 20.536 158.333 21.528C158.333 22.6 158.621 23.432 159.197 24.024C159.789 24.616 160.549 24.912 161.477 24.912ZM184.965 13.776L182.637 27H179.901L180.165 25.44C179.637 25.984 178.997 26.416 178.245 26.736C177.509 27.04 176.749 27.192 175.965 27.192C174.573 27.192 173.461 26.816 172.629 26.064C171.797 25.312 171.381 24.248 171.381 22.872C171.381 22.504 171.421 22.064 171.501 21.552L172.869 13.776H175.581L174.285 21.144C174.221 21.592 174.189 21.912 174.189 22.104C174.189 22.984 174.429 23.656 174.909 24.12C175.405 24.584 176.085 24.816 176.949 24.816C177.957 24.816 178.813 24.52 179.517 23.928C180.221 23.32 180.685 22.448 180.909 21.312L182.229 13.776H184.965ZM190.903 16.104C191.447 15.304 192.087 14.68 192.823 14.232C193.575 13.784 194.407 13.56 195.319 13.56L194.815 16.392H194.119C193.063 16.392 192.215 16.656 191.575 17.184C190.935 17.712 190.487 18.624 190.231 19.92L188.983 27H186.247L188.575 13.776H191.311L190.903 16.104ZM200.33 27.216C199.418 27.216 198.586 27.064 197.834 26.76C197.082 26.44 196.49 26 196.058 25.44C195.626 24.864 195.41 24.208 195.41 23.472C195.41 23.344 195.426 23.168 195.458 22.944H198.122C198.058 23.552 198.242 24.056 198.674 24.456C199.106 24.856 199.714 25.056 200.498 25.056C201.266 25.056 201.898 24.92 202.394 24.648C202.89 24.376 203.138 23.976 203.138 23.448C203.138 23 202.93 22.64 202.514 22.368C202.114 22.096 201.466 21.792 200.57 21.456C199.722 21.12 199.034 20.808 198.506 20.52C197.978 20.232 197.522 19.84 197.138 19.344C196.754 18.832 196.562 18.2 196.562 17.448C196.562 16.68 196.778 16.008 197.21 15.432C197.658 14.84 198.274 14.384 199.058 14.064C199.858 13.728 200.77 13.56 201.794 13.56C202.722 13.56 203.546 13.72 204.266 14.04C205.002 14.344 205.57 14.784 205.97 15.36C206.386 15.92 206.594 16.568 206.594 17.304C206.594 17.528 206.586 17.696 206.57 17.808H203.978C204.042 17.184 203.858 16.68 203.426 16.296C203.01 15.912 202.41 15.72 201.626 15.72C200.938 15.72 200.378 15.864 199.946 16.152C199.53 16.44 199.322 16.832 199.322 17.328C199.322 17.824 199.538 18.224 199.97 18.528C200.402 18.816 201.066 19.136 201.962 19.488C202.778 19.808 203.442 20.112 203.954 20.4C204.466 20.688 204.906 21.072 205.274 21.552C205.642 22.032 205.826 22.632 205.826 23.352C205.826 24.136 205.586 24.824 205.106 25.416C204.642 25.992 203.994 26.44 203.162 26.76C202.33 27.064 201.386 27.216 200.33 27.216Z" fill="white"/>
<path d="M234 10C234 4.47715 238.477 0 244 0H361C366.523 0 371 4.47715 371 10V33H234V10Z" fill="#E1318C"/>
<path d="M273.069 10.32L272.685 12.456H268.245L265.677 27H262.941L265.509 12.456H261.045L261.429 10.32H273.069ZM273.152 20.328C273.392 19 273.872 17.824 274.592 16.8C275.328 15.776 276.224 14.984 277.28 14.424C278.336 13.848 279.44 13.56 280.592 13.56C281.632 13.56 282.504 13.768 283.208 14.184C283.912 14.584 284.44 15.088 284.792 15.696L285.128 13.776H287.888L285.56 27H282.8L283.16 25.032C282.584 25.656 281.856 26.176 280.976 26.592C280.112 27.008 279.168 27.216 278.144 27.216C277.152 27.216 276.264 26.992 275.48 26.544C274.712 26.096 274.104 25.464 273.656 24.648C273.224 23.816 273.008 22.864 273.008 21.792C273.008 21.312 273.056 20.824 273.152 20.328ZM283.976 20.376C284.04 20.072 284.072 19.744 284.072 19.392C284.072 18.32 283.752 17.48 283.112 16.872C282.488 16.248 281.704 15.936 280.76 15.936C280.056 15.936 279.368 16.112 278.696 16.464C278.024 16.8 277.44 17.304 276.944 17.976C276.448 18.632 276.12 19.416 275.96 20.328C275.896 20.632 275.864 20.96 275.864 21.312C275.864 22.4 276.176 23.264 276.8 23.904C277.44 24.528 278.232 24.84 279.176 24.84C279.88 24.84 280.568 24.664 281.24 24.312C281.912 23.96 282.496 23.448 282.992 22.776C283.488 22.088 283.816 21.288 283.976 20.376ZM282.128 10.632L278.312 12.696L278.696 10.56L282.488 8.568L285.56 10.56L285.176 12.696L282.128 10.632ZM289.418 20.376C289.658 19.016 290.138 17.824 290.858 16.8C291.594 15.76 292.498 14.96 293.57 14.4C294.658 13.84 295.834 13.56 297.098 13.56C298.698 13.56 299.954 13.944 300.866 14.712C301.778 15.464 302.298 16.544 302.426 17.952H299.474C299.346 17.296 299.05 16.784 298.586 16.416C298.122 16.048 297.49 15.864 296.69 15.864C295.57 15.864 294.61 16.264 293.81 17.064C293.01 17.848 292.482 18.952 292.226 20.376C292.146 20.888 292.106 21.304 292.106 21.624C292.106 22.68 292.37 23.496 292.898 24.072C293.426 24.632 294.162 24.912 295.106 24.912C296.69 24.912 297.858 24.216 298.61 22.824H301.562C300.938 24.168 300.026 25.24 298.826 26.04C297.642 26.824 296.266 27.216 294.698 27.216C293.034 27.216 291.714 26.744 290.738 25.8C289.762 24.84 289.274 23.544 289.274 21.912C289.274 21.416 289.322 20.904 289.418 20.376ZM312.76 13.56C314.088 13.56 315.152 13.936 315.952 14.688C316.752 15.424 317.152 16.48 317.152 17.856C317.152 18.224 317.112 18.672 317.032 19.2L315.64 27H312.928L314.248 19.608C314.312 19.16 314.344 18.84 314.344 18.648C314.344 17.768 314.096 17.096 313.6 16.632C313.12 16.168 312.448 15.936 311.584 15.936C310.544 15.936 309.664 16.256 308.944 16.896C308.24 17.52 307.792 18.424 307.6 19.608V19.56L306.28 27H303.544L306.688 9.24H309.424L308.344 15.312C308.904 14.752 309.568 14.32 310.336 14.016C311.104 13.712 311.912 13.56 312.76 13.56ZM327.194 13.56C328.842 13.56 330.154 14.024 331.13 14.952C332.122 15.88 332.618 17.128 332.618 18.696C332.618 19.064 332.578 19.504 332.498 20.016C332.434 20.368 332.322 20.8 332.162 21.312H322.058C322.042 21.424 322.034 21.592 322.034 21.816C322.034 22.76 322.322 23.512 322.898 24.072C323.49 24.632 324.258 24.912 325.202 24.912C326.69 24.912 327.834 24.296 328.634 23.064H331.586C330.978 24.28 330.082 25.28 328.898 26.064C327.714 26.832 326.346 27.216 324.794 27.216C323.69 27.216 322.722 27 321.89 26.568C321.058 26.136 320.41 25.52 319.946 24.72C319.482 23.904 319.25 22.952 319.25 21.864C319.25 21.4 319.298 20.904 319.394 20.376C319.634 19.016 320.122 17.824 320.858 16.8C321.594 15.76 322.506 14.96 323.594 14.4C324.698 13.84 325.898 13.56 327.194 13.56ZM329.762 19.344C329.794 19.056 329.81 18.848 329.81 18.72C329.81 17.84 329.514 17.144 328.922 16.632C328.346 16.12 327.594 15.864 326.666 15.864C325.69 15.864 324.81 16.176 324.026 16.8C323.242 17.424 322.706 18.272 322.418 19.344H329.762ZM338.815 27.216C337.903 27.216 337.071 27.064 336.319 26.76C335.567 26.44 334.975 26 334.543 25.44C334.111 24.864 333.895 24.208 333.895 23.472C333.895 23.344 333.911 23.168 333.943 22.944H336.607C336.543 23.552 336.727 24.056 337.159 24.456C337.591 24.856 338.199 25.056 338.983 25.056C339.751 25.056 340.383 24.92 340.879 24.648C341.375 24.376 341.623 23.976 341.623 23.448C341.623 23 341.415 22.64 340.999 22.368C340.599 22.096 339.951 21.792 339.055 21.456C338.207 21.12 337.519 20.808 336.991 20.52C336.463 20.232 336.007 19.84 335.623 19.344C335.239 18.832 335.047 18.2 335.047 17.448C335.047 16.68 335.263 16.008 335.695 15.432C336.143 14.84 336.759 14.384 337.543 14.064C338.343 13.728 339.255 13.56 340.279 13.56C341.207 13.56 342.031 13.72 342.751 14.04C343.487 14.344 344.055 14.784 344.455 15.36C344.871 15.92 345.079 16.568 345.079 17.304C345.079 17.528 345.071 17.696 345.055 17.808H342.463C342.527 17.184 342.343 16.68 341.911 16.296C341.495 15.912 340.895 15.72 340.111 15.72C339.423 15.72 338.863 15.864 338.431 16.152C338.015 16.44 337.807 16.832 337.807 17.328C337.807 17.824 338.023 18.224 338.455 18.528C338.887 18.816 339.551 19.136 340.447 19.488C341.263 19.808 341.927 20.112 342.439 20.4C342.951 20.688 343.391 21.072 343.759 21.552C344.127 22.032 344.311 22.632 344.311 23.352C344.311 24.136 344.071 24.824 343.591 25.416C343.127 25.992 342.479 26.44 341.647 26.76C340.815 27.064 339.871 27.216 338.815 27.216Z" fill="white"/>
<rect x="13.5" y="52.5" width="394" height="231.844" rx="6.5" fill="white" stroke="white"/>
<path d="M14 59C14 55.6863 16.6863 53 20 53H102.665V283.844H20C16.6863 283.844 14 281.157 14 277.844V59Z" fill="#E1318C"/>
<path d="M36.3657 176.203H85.0914" stroke="white" stroke-width="2"/>
<path d="M36.3657 174.906L85.0913 174.906" stroke="#CCCCCC"/>
<rect x="13.5" y="294.5" width="394" height="368" rx="6.5" fill="white" stroke="white"/>
<path d="M14 301C14 297.686 16.6863 295 20 295H102.665V662H20C16.6863 662 14 659.314 14 656V301Z" fill="#E1318C"/>
<defs>
<filter id="filter0_d_281_6647" x="0" y="33" width="430" height="652" filterUnits="userSpaceOnUse" color-interpolation-filters="sRGB">
<feFlood flood-opacity="0" result="BackgroundImageFix"/>
<feColorMatrix in="SourceAlpha" type="matrix" values="0 0 0 0 0 0 0 0 0 0 0 0 0 0 0 0 0 0 127 0" result="hardAlpha"/>
<feOffset dx="5" dy="8"/>
<feGaussianBlur stdDeviation="2"/>
<feComposite in2="hardAlpha" operator="out"/>
<feColorMatrix type="matrix" values="0 0 0 0 0 0 0 0 0 0 0 0 0 0 0 0 0 0 0.25 0"/>
<feBlend mode="normal" in2="BackgroundImageFix" result="effect1_dropShadow_281_6647"/>
<feBlend mode="normal" in="SourceGraphic" in2="effect1_dropShadow_281_6647" result="shape"/>
</filter>
</defs>
</svg>
