<svg width="737" height="412" viewBox="0 0 737 412" fill="none" xmlns="http://www.w3.org/2000/svg">
<g clip-path="url(#clip0_44_24)">
<path d="M736.45 219.45C723.69 220.83 712.14 225.09 702.41 233.72C699 236.75 699.03 236.68 695.7 233.46C690.92 228.84 686.59 223.76 681.36 219.61C679.56 218.19 679.42 217.42 681.39 215.57C688.18 209.18 695.77 204.08 704.15 200.12C713.14 195.87 722.56 193.14 732.52 192.45C733.84 192.36 735.09 191.72 736.45 191.95V219.44V219.45Z" fill="#E9E9E9"/>
<path d="M0 234.97C12.76 236.35 24.31 240.61 34.04 249.24C37.45 252.27 37.42 252.2 40.75 248.98C45.53 244.36 49.86 239.28 55.09 235.13C56.89 233.71 57.03 232.94 55.06 231.09C48.27 224.7 40.68 219.6 32.3 215.64C23.31 211.39 13.89 208.66 3.93 207.97C2.61 207.88 1.36 207.24 0 207.47C0 216.63 0 225.8 0 234.96L0 234.97Z" fill="#E9E9E9"/>
<path d="M736.45 147.97C725.38 147.97 714.31 147.92 703.23 148.02C701.07 148.04 700.24 147.53 700.42 145.26C701.55 131.6 705.81 119.19 714.65 108.53C715.55 107.45 716.49 106.4 717.37 105.3C718.58 103.77 719.61 103.8 721.01 105.24C725.29 109.67 729.69 113.98 734.06 118.33C734.75 119.02 735.3 119.94 736.45 119.98V147.97Z" fill="#E9E9E9"/>
<path d="M736.45 403.91C725.38 403.91 714.31 403.85 703.23 403.96C701.07 403.98 700.24 403.47 700.42 401.2C701.55 387.54 705.81 375.13 714.65 364.47C715.55 363.39 716.5 362.34 717.37 361.24C718.58 359.71 719.61 359.74 721.01 361.18C725.29 365.61 729.69 369.92 734.06 374.27C734.75 374.96 735.3 375.88 736.45 375.92V403.91Z" fill="#E9E9E9"/>
<path d="M644.98 404.41C630.9 404.41 616.82 404.34 602.75 404.47C600.27 404.49 599.74 403.58 599.97 401.44C601.03 391.53 604.41 382.68 611.03 375.04C617.95 367.05 626.58 362.09 636.81 360.13C647.92 358.01 658.45 360.07 668.17 365.91C680.95 373.58 687.62 385.22 689.91 399.67C689.92 399.75 689.93 399.84 689.94 399.92C690.45 404.21 690.26 404.42 685.97 404.42C672.31 404.42 658.65 404.42 644.99 404.42L644.98 404.41Z" fill="#E9E9E9"/>
<path d="M44.9801 404.41C30.9001 404.41 16.8201 404.36 2.7501 404.46C0.460102 404.48 -0.169898 403.73 0.0401016 401.6C1.0501 391.68 4.3901 382.79 11.0101 375.16C17.6701 367.47 25.8901 362.55 35.7701 360.4C47.2601 357.9 58.0701 359.86 68.1201 365.81C81.0201 373.45 87.7401 385.19 90.0101 399.74C90.0401 399.9 90.0301 400.07 90.0401 400.24C90.2534 403.02 88.9801 404.41 86.2201 404.41C72.4801 404.41 58.7301 404.41 44.9901 404.41H44.9801Z" fill="#E9E9E9"/>
<path d="M644.97 148.46C630.89 148.46 616.81 148.39 602.74 148.52C600.23 148.54 599.74 147.59 599.97 145.47C601.03 135.56 604.42 126.71 611.04 119.07C617.96 111.08 626.59 106.12 636.83 104.17C647.94 102.05 658.47 104.11 668.19 109.96C680.97 117.64 687.64 129.28 689.92 143.73C689.93 143.81 689.94 143.9 689.95 143.98C690.45 148.27 690.27 148.47 685.96 148.47C672.3 148.47 658.64 148.47 644.98 148.47L644.97 148.46Z" fill="#E9E9E9"/>
<path d="M45.05 148.46C30.97 148.46 16.89 148.39 2.82004 148.52C0.310035 148.54 -0.169964 147.59 0.0500355 145.47C1.11004 135.56 4.50004 126.71 11.12 119.07C18.04 111.08 26.68 106.12 36.91 104.17C48.02 102.05 58.55 104.12 68.27 109.96C81.05 117.64 87.72 129.28 89.99 143.73C90 143.81 90.01 143.9 90.02 143.98C90.52 148.27 90.34 148.46 86.03 148.46C72.37 148.46 58.71 148.46 45.05 148.46Z" fill="#E9E9E9"/>
<path d="M611.51 236.94C597.43 236.94 583.36 236.88 569.28 237C566.86 237.02 566.22 236.22 566.48 234C567.56 224.84 570.32 216.33 576.21 209.08C583.56 200.02 592.97 194.32 604.53 192.5C616.85 190.56 628.13 193.4 638.15 200.8C648.32 208.31 654.31 218.41 655.98 230.98C656.77 236.93 656.75 236.94 650.73 236.94C637.65 236.94 624.58 236.94 611.5 236.94H611.51Z" fill="#E9E9E9"/>
<path d="M201.62 315.93C187.46 315.93 173.3 315.89 159.15 315.97C157.06 315.98 156.36 315.37 156.51 313.29C157.21 303.75 160.45 295.24 166.44 287.76C174.39 277.82 184.92 272.37 197.35 271.08C208.37 269.93 218.68 272.83 227.65 279.42C237.63 286.75 244.13 296.55 245.83 308.93C246.87 316.46 248.61 315.94 240.09 315.92C227.26 315.89 214.44 315.92 201.61 315.92L201.62 315.93Z" fill="#E9E9E9"/>
<path d="M201.54 59.99C187.46 59.99 173.39 59.95 159.31 60.04C157.15 60.05 156.33 59.54 156.5 57.27C157.23 47.83 160.42 39.37 166.33 31.95C174.31 21.92 184.89 16.3 197.44 15.16C210.2 14 221.68 17.83 231.36 26.56C239.18 33.61 244.05 42.23 245.8 52.6C245.92 53.33 245.96 54.08 246.03 54.82C246.39 58.2667 244.8 59.99 241.26 59.99C228.02 59.99 214.78 59.99 201.53 59.99H201.54Z" fill="#E9E9E9"/>
<path d="M512.86 359.35C535.38 359.48 552.84 365.66 568.44 377.23C571.1 379.2 573.48 381.54 576.01 383.68C577.01 384.52 576.95 385.21 576.02 386.13C570.39 391.69 564.79 397.28 559.24 402.92C558.07 404.11 557.27 403.92 556.13 402.85C546.76 394.05 535.66 388.93 522.89 387.37C506.57 385.38 492.02 389.66 479.04 399.6C478.25 400.2 477.4 400.75 476.71 401.45C473.43 404.75 473.99 404.63 470.62 401.28C465.72 396.4 460.9 391.45 455.92 386.65C454.44 385.23 454.55 384.36 456 383.11C461.35 378.5 466.84 374.11 473.02 370.62C480.75 366.26 488.95 363.17 497.61 361.3C503.62 360 509.69 359.27 512.85 359.34L512.86 359.35Z" fill="#E9E9E9"/>
<path d="M515.98 103.43C536.06 103.75 554.09 109.91 569.81 122.53C571.88 124.19 573.86 125.95 575.91 127.64C576.98 128.52 577 129.25 575.97 130.27C570.34 135.82 564.74 141.42 559.18 147.05C558.11 148.13 557.32 148.04 556.26 147.02C547.5 138.56 536.93 133.61 525.04 131.64C513.83 129.78 502.92 131.26 492.42 135.74C485.92 138.51 480.15 142.31 475.07 147.19C474.03 148.19 473.26 148 472.33 147.07C466.75 141.46 461.18 135.84 455.53 130.3C454.31 129.1 454.73 128.39 455.75 127.49C461.15 122.68 466.81 118.23 473.13 114.66C480.86 110.29 489.07 107.23 497.73 105.37C503.74 104.08 509.81 103.33 516 103.45L515.98 103.43Z" fill="#E9E9E9"/>
<path d="M141.25 191.9C157.86 192.26 173.33 196.41 187.39 205.51C192.15 208.59 196.54 212.07 200.73 215.87C202.04 217.06 201.97 217.84 200.73 219.05C195.31 224.35 189.95 229.71 184.65 235.13C183.32 236.49 182.46 236.62 180.99 235.22C171.79 226.46 160.79 221.56 148.21 219.91C133.82 218.03 120.68 221.46 108.52 229.03C105.65 230.81 103.04 233.06 100.52 235.33C99.2199 236.5 98.5599 236.27 97.4999 235.19C93.1799 230.79 88.8199 226.44 84.4299 222.11C83.1299 220.83 81.6999 219.69 80.3399 218.48C79.5499 217.78 79.6099 217.27 80.4499 216.48C87.6999 209.64 95.7499 203.98 104.83 199.85C113.65 195.83 122.85 193.26 132.56 192.4C135.46 192.14 138.35 192.02 141.27 191.92L141.25 191.9Z" fill="#E9E9E9"/>
<path d="M732.82 296.63C732.51 296.99 732.18 297.45 731.77 297.86C726.3 303.34 720.8 308.8 715.35 314.31C714.44 315.22 713.83 315.51 712.7 314.5C707.85 310.16 702.57 306.44 696.6 303.76C685.55 298.81 674.1 297.24 662.11 299.27C651.78 301.02 642.7 305.36 634.51 311.72C633.46 312.53 632.55 313.52 631.65 314.51C630.62 315.64 629.77 315.52 628.73 314.47C623.16 308.85 617.57 303.24 611.94 297.69C610.85 296.62 611.13 295.96 612.07 295.05C617.01 290.33 622.43 286.24 628.31 282.78C636.32 278.07 644.89 274.73 653.98 272.87C662.37 271.16 670.8 270.53 679.42 271.32C691 272.38 701.91 275.42 712.17 280.81C719.33 284.58 725.95 289.13 731.67 294.91C732.12 295.37 732.74 295.73 732.81 296.63H732.82Z" fill="#E9E9E9"/>
<path d="M673.66 14.95C694.66 15.08 711.74 20.68 727.01 31.68C730.02 33.85 732.95 36.2 735.54 38.93C736.6 40.05 736.89 40.73 735.64 41.94C730.1 47.36 724.64 52.85 719.19 58.36C718.29 59.27 717.67 59.57 716.54 58.55C711.69 54.21 706.41 50.49 700.44 47.81C689.39 42.86 677.95 41.29 665.95 43.32C655.62 45.07 646.54 49.41 638.35 55.77C637.3 56.58 636.39 57.57 635.49 58.56C634.46 59.69 633.61 59.58 632.57 58.53C627 52.91 621.41 47.3 615.78 41.75C614.7 40.69 614.96 40.02 615.91 39.11C620.85 34.39 626.27 30.3 632.15 26.84C640.16 22.13 648.73 18.83 657.82 16.92C663.75 15.68 669.74 14.89 673.66 14.95Z" fill="#E9E9E9"/>
<path d="M70.2599 270.89C90.9799 271.04 108.05 276.66 123.31 287.66C126.39 289.88 129.38 292.29 132 295.1C132.95 296.12 133.01 296.75 132 297.75C126.43 303.25 120.89 308.79 115.39 314.36C114.43 315.33 113.81 315.42 112.73 314.45C107.99 310.24 102.87 306.59 97.0699 303.94C85.8899 298.85 74.2899 297.14 62.1299 299.3C50.4399 301.37 40.2199 306.26 31.6799 314.55C30.7099 315.49 29.9299 315.59 28.9399 314.59C23.3099 308.92 17.6599 303.25 11.9599 297.64C10.8199 296.52 11.2899 295.86 12.1899 295.01C17.1299 290.29 22.5499 286.21 28.4399 282.75C36.5199 277.99 45.1899 274.68 54.3599 272.79C60.1999 271.58 66.1199 270.78 70.2499 270.89H70.2599Z" fill="#E9E9E9"/>
<path d="M59.4499 15.71C79.6599 15.87 96.7299 21.49 111.99 32.49C115.07 34.71 118.06 37.1199 120.68 39.9399C121.66 40.9899 121.63 41.61 120.64 42.59C115.07 48.09 109.53 53.63 104.03 59.2C103.05 60.19 102.43 60.1899 101.37 59.25C96.6999 55.0999 91.6399 51.49 85.9299 48.86C74.6899 43.68 63.0099 41.96 50.7599 44.13C39.1599 46.18 28.9999 51.02 20.5099 59.2299C19.3499 60.3499 18.5399 60.3899 17.3999 59.2299C11.8999 53.66 6.37992 48.1 0.779917 42.63C-0.570083 41.31 0.0299166 40.6 1.04992 39.63C9.69992 31.53 19.4899 25.31 30.6299 21.18C40.3799 17.57 50.4399 15.85 59.4499 15.7V15.71Z" fill="#E9E9E9"/>
<path d="M487.17 59.99C483.76 59.99 480.33 59.8 476.93 60.05C474.46 60.24 473.66 59.09 473.52 57.02C473.31 53.9 471.96 51.24 470.09 48.88C465.2 42.72 458.87 40.57 451.13 42.16C444.14 43.59 437.48 51.23 437.49 58.05C437.49 59.42 436.86 60 435.51 60C427.68 59.98 419.85 59.99 412.03 60C411.03 60 410.45 59.71 410.58 58.54C411.25 52.69 412.19 46.96 414.66 41.48C418.34 33.32 424.04 27 431.35 22.15C439.09 17.01 447.79 14.7 457.09 15.03C466.93 15.38 475.75 18.68 483.48 24.77C492.12 31.57 497.31 40.51 499.62 51.19C499.74 51.75 499.95 52.32 499.97 52.89C500.05 55.11 501.57 57.83 500.12 59.39C498.61 61.03 495.71 59.84 493.42 59.97C491.35 60.09 489.26 60 487.18 60L487.17 59.99Z" fill="#E9E9E9"/>
<path d="M423.63 315.93C419.88 315.93 416.14 315.93 412.39 315.93C411.3 315.93 410.42 315.89 410.59 314.33C411.24 308.38 412.26 302.59 414.83 297.05C418.59 288.95 424.31 282.68 431.69 277.88C439.5 272.8 448.2 270.56 457.48 270.97C467.21 271.39 475.94 274.72 483.59 280.79C492.21 287.63 497.37 296.59 499.65 307.26C500.12 309.44 500.46 311.64 500.51 313.89C500.54 315.37 500.08 315.96 498.52 315.95C491.03 315.89 483.53 315.84 476.04 315.97C473.51 316.01 473.72 314.19 473.56 312.81C473.2 309.8 471.96 307.2 470.17 304.9C465.4 298.77 459.11 296.56 451.48 298.01C444.08 299.41 437.6 306.99 437.51 313.88C437.49 315.6 436.6 315.96 435.12 315.94C431.29 315.9 427.46 315.93 423.63 315.93Z" fill="#E9E9E9"/>
<path d="M330.83 148.46C327.08 148.46 323.33 148.42 319.59 148.48C318.16 148.5 317.61 148.13 317.46 146.55C316.69 138.11 310.36 131.76 302.01 130.41C290.72 128.58 281.74 137.28 281.05 146.69C280.94 148.17 280.35 148.49 279.05 148.48C271.55 148.44 264.06 148.42 256.56 148.49C254.83 148.51 254.44 147.79 254.5 146.25C254.85 137 257.84 128.69 263.44 121.36C271.01 111.45 281.06 105.7 293.41 103.95C316.21 100.73 338.16 115.82 343.32 139.23C343.82 141.48 344.06 143.79 344.07 146.14C344.08 148.08 343.38 148.55 341.58 148.49C338 148.37 334.42 148.46 330.84 148.46H330.83Z" fill="#E9E9E9"/>
<path d="M330.77 404.4C327.11 404.4 323.44 404.36 319.78 404.42C318.32 404.45 317.61 404.2 317.45 402.43C316.72 394.04 310.38 387.72 301.95 386.35C290.86 384.54 281.75 393.07 281.04 402.69C280.95 403.98 280.5 404.42 279.24 404.42C271.58 404.39 263.91 404.38 256.25 404.42C254.7 404.42 254.48 403.64 254.51 402.38C254.71 395 256.68 388.12 260.43 381.79C268.32 368.49 280.29 361.35 295.41 359.51C302.6 358.63 309.65 360.09 316.36 362.85C327.29 367.36 335.21 375.1 340.16 385.79C342.58 391.01 344.15 396.51 344.04 402.38C344.01 403.88 343.55 404.45 342.02 404.41C338.27 404.33 334.52 404.38 330.78 404.38L330.77 404.4Z" fill="#E9E9E9"/>
<path d="M388.84 236.94C385.09 236.94 381.35 236.9 377.6 236.96C376.19 236.98 375.56 236.65 375.47 235.04C375 227 368.17 220.23 360.32 218.85C350.33 217.1 340.35 224.66 339.42 234.01C339.19 236.29 338.21 237.08 335.77 237.01C328.78 236.8 321.78 236.89 314.79 236.97C313.07 236.99 312.41 236.49 312.5 234.71C313 225.13 316.18 216.56 322.16 209.09C329.82 199.53 339.75 194.04 351.96 192.38C372.99 189.52 393.48 202.86 400.04 222.9C401.28 226.68 402.05 230.57 402.06 234.61C402.06 236.54 401.39 237.03 399.59 236.97C396.01 236.85 392.43 236.94 388.85 236.93L388.84 236.94Z" fill="#E9E9E9"/>
<path d="M399.43 404.42C382.95 403.85 368.57 398.8 356.5 387.72C354.72 386.09 354.98 385.09 356.57 383.53C364.18 376.06 371.71 368.51 379.19 360.92C380.53 359.56 381.23 359.53 382.76 360.83C390.76 367.68 401.88 368.75 411.38 363.69C412.26 363.22 413.12 362.71 413.94 362.15C416.32 360.517 418.493 360.677 420.46 362.63C427.65 369.82 434.79 377.04 442.05 384.15C443.49 385.56 443.47 386.4 442 387.69C431.93 396.53 420.32 402.05 407.04 403.8C404.45 404.14 401.79 404.72 399.43 404.42Z" fill="#E9E9E9"/>
<path d="M399.67 148.48C383.03 147.92 368.64 142.89 356.57 131.82C354.88 130.27 354.85 129.27 356.53 127.62C364.15 120.16 371.68 112.62 379.15 105.01C380.62 103.51 381.35 103.69 382.9 105C390.93 111.72 401.83 112.78 411.33 107.78C412.06 107.39 412.75 106.92 413.46 106.49C416.293 104.777 418.907 105.117 421.3 107.51C428.25 114.46 435.16 121.45 442.18 128.33C443.59 129.72 443.4 130.51 442.06 131.69C432.02 140.55 420.39 146.01 407.13 147.91C404.51 148.29 401.85 148.33 399.68 148.49L399.67 148.48Z" fill="#E9E9E9"/>
<path d="M556.98 60.03C539.3 59.33 524.59 54.01 512.43 42.32C510.93 40.88 512.28 40.48 512.89 39.86C519.87 32.82 526.85 25.78 533.94 18.85C535.17 17.65 535.74 15.44 537.52 15.26C539.3 15.08 540.34 17.11 541.77 18.06C551 24.18 562.92 23.83 571.73 16.87C573.68 15.33 574.81 15.46 576.5 17.18C583.96 24.8 591.51 32.33 599.11 39.8C600.48 41.15 600.44 41.96 599.04 43.16C589.25 51.58 578.22 57.32 565.27 59C562.15 59.4 559.03 59.76 556.96 60.01L556.98 60.03Z" fill="#E9E9E9"/>
<path d="M556.77 315.96C539.27 315.27 524.57 309.94 512.41 298.24C510.89 296.78 512.32 296.38 512.91 295.78C519.89 288.74 526.87 281.7 533.95 274.77C535.18 273.57 535.74 271.35 537.53 271.2C539.31 271.06 540.34 273.07 541.78 274.02C550.99 280.13 562.91 279.75 571.75 272.81C573.52 271.42 574.63 271.22 576.34 272.97C583.85 280.66 591.46 288.24 599.13 295.77C600.53 297.15 600.38 297.94 599.03 299.13C589.91 307.17 579.39 312.42 567.49 314.77C563.69 315.52 559.76 315.64 556.77 315.95V315.96Z" fill="#E9E9E9"/>
<path d="M258.75 236.99C241.7 237.2 228.22 231.54 216.22 221.87C215.64 221.4 215.19 220.78 214.61 220.31C213.23 219.18 213.42 218.2 214.65 217.04C217.01 214.81 219.28 212.49 221.55 210.17C226.77 204.81 232 199.46 237.15 194.04C238.52 192.6 239.38 192.21 241.18 193.76C250.37 201.66 264.77 201.59 273.96 193.68C275.35 192.48 276.01 192.66 277.16 193.83C284.77 201.52 292.41 209.18 300.12 216.77C301.55 218.18 301.74 219.13 300.18 220.6C291.59 228.68 281.37 233.49 269.94 235.94C265.79 236.83 261.59 237.23 258.74 237.01L258.75 236.99Z" fill="#E9E9E9"/>
<path d="M201.03 126.12C200.4 139.15 191.17 148.37 178.77 148.3C165.57 148.23 156.27 139.02 156.24 125.76C156.21 113.25 165.41 103.62 178.63 103.59C190.95 103.56 200.9 113 201.02 126.12H201.03Z" fill="#E9E9E9"/>
<path d="M201.03 381.96C200.48 394.81 191.46 404.24 178.88 404.24C165.38 404.24 156.11 394.61 156.25 381.56C156.39 368.69 165.8 359.6 178.53 359.53C190.89 359.47 200.85 368.9 201.03 381.96Z" fill="#E9E9E9"/>
<path d="M478.14 191.96C491.06 192.57 500.41 201.76 500.35 214.47C500.29 227.45 490.71 236.73 478.05 236.77C465.35 236.81 455.51 227.51 455.62 214.12C455.72 201.61 465.34 192.25 478.15 191.96H478.14Z" fill="#E9E9E9"/>
<path d="M312.51 37.27C312.86 24.6 322.4 15.01 334.99 15.11C348.48 15.22 357.52 25.2 357.28 37.63C357.02 51.25 347.29 59.84 334.91 59.82C321.84 59.79 312.91 50.16 312.51 37.28V37.27Z" fill="#E9E9E9"/>
<path d="M312.51 293.27C312.82 280.49 322.51 270.85 335.18 271.05C348.39 271.26 357.44 280.96 357.28 293.51C357.11 306.81 347.66 315.71 334.97 315.75C322.04 315.79 312.96 306.29 312.51 293.27Z" fill="#E9E9E9"/>
<path d="M275.85 315.93C270.44 315.93 265.02 315.84 259.61 315.98C257.47 316.04 256.92 315.3 256.99 313.27C257.47 300.43 261.71 288.93 269.18 278.57C270.63 276.56 272.37 274.76 273.89 272.79C275.11 271.22 275.99 271.59 277.24 272.86C284.84 280.57 292.51 288.22 300.2 295.84C301.4 297.03 301.7 297.82 300.48 299.34C296.98 303.7 294.76 308.67 294.53 314.35C294.46 316.02 293.45 315.92 292.33 315.92C286.83 315.92 281.33 315.92 275.84 315.92L275.85 315.93Z" fill="#E9E9E9"/>
<path d="M275.79 59.99C270.38 59.99 264.96 59.92 259.55 60.03C257.62 60.07 256.91 59.56 256.98 57.52C257.42 44.59 261.67 33.01 269.21 22.59C270.76 20.44 272.39 18.34 274.28 16.46C275.19 15.55 275.82 15.52 276.74 16.45C284.67 24.43 292.62 32.38 300.59 40.3C301.67 41.37 301.49 42.11 300.59 43.24C297.06 47.69 294.76 52.7 294.53 58.47C294.46 60.18 293.36 59.98 292.29 59.98C286.79 59.98 281.29 59.98 275.8 59.98L275.79 59.99Z" fill="#E9E9E9"/>
<path d="M537.26 236.94C531.76 236.94 526.27 236.89 520.77 236.97C519.08 237 518.54 236.51 518.42 234.74C518.08 229.73 516.3 225.18 513.06 221.32C511.4 219.35 511.47 218.05 513.39 216.19C520.87 208.95 528.22 201.58 535.48 194.11C537.19 192.35 538.13 192.62 539.56 194.25C547.32 203.12 552.6 213.23 554.92 224.81C555.57 228.05 555.99 231.33 556.02 234.67C556.03 236.38 555.54 237.01 553.76 236.98C548.27 236.88 542.77 236.94 537.27 236.94H537.26Z" fill="#E9E9E9"/>
<path d="M119.38 147.97C113.89 147.97 108.39 147.9 102.9 148.01C101.01 148.05 100.38 147.43 100.53 145.58C101.33 135.36 103.8 125.65 109.03 116.74C111.47 112.58 114.32 108.72 117.58 105.16C118.85 103.77 119.76 103.88 121.05 105.18C128.78 112.99 136.57 120.73 144.33 128.52C144.92 129.11 145.99 129.66 145 130.75C141.07 135.07 138.87 140.19 138.2 145.93C137.99 147.78 137.17 148.02 135.62 148C130.21 147.93 124.8 147.97 119.39 147.97H119.38Z" fill="#E9E9E9"/>
<path d="M119.38 403.91C113.89 403.91 108.39 403.84 102.9 403.95C101.01 403.99 100.38 403.38 100.52 401.52C101.32 391.3 103.79 381.59 109.02 372.68C111.46 368.52 114.31 364.66 117.57 361.1C118.84 359.71 119.75 359.82 121.04 361.12C128.77 368.93 136.56 376.67 144.32 384.46C144.91 385.05 145.99 385.6 144.99 386.69C140.99 391.07 138.84 396.3 138.14 402.11C137.94 403.72 137.21 403.94 135.87 403.93C130.38 403.88 124.88 403.91 119.39 403.91H119.38Z" fill="#E9E9E9"/>
<path d="M395.39 59.98C390.85 59.4 386.28 59.41 381.72 59.49C380.39 59.52 380.03 58.93 379.99 57.69C379.75 48.64 377.01 40.43 371.59 33.14C371.44 32.94 371.36 32.7 371.21 32.5C368.09 28.4 367.97 28.26 371.83 25C374.89 22.41 377.68 19.58 380.46 16.72C381.87 15.27 382.83 15.36 384.11 16.8C391.23 24.85 396.11 34.07 398.48 44.56C399.39 48.59 399.92 52.69 400.08 56.84C400.18 59.38 399.45 60.42 396.9 59.98C396.41 59.9 395.9 59.97 395.4 59.97L395.39 59.98Z" fill="#E9E9E9"/>
<path d="M395.44 315.93C390.9 315.23 386.33 315.43 381.77 315.45C380.49 315.45 380.03 314.99 379.99 313.7C379.76 304.65 377.04 296.44 371.62 289.14C371.47 288.94 371.39 288.69 371.24 288.5C368.06 284.28 367.95 284.15 371.97 280.82C374.93 278.37 377.59 275.64 380.24 272.89C381.76 271.31 382.79 271.23 384.25 272.9C391.26 280.93 396.11 290.07 398.46 300.47C399.37 304.5 399.92 308.59 400.06 312.75C400.14 315.19 399.58 316.42 396.93 315.94C396.45 315.85 395.93 315.93 395.43 315.93H395.44Z" fill="#E9E9E9"/>
<path d="M413 232.51C413.67 219.55 417.93 207.9 425.68 197.5C426.83 195.96 428.13 194.58 429.47 193.22C430.36 192.32 431.12 192.35 432.02 193.22C435.78 196.86 439.56 200.48 443.38 204.07C444.48 205.11 444.67 205.88 443.58 207.19C438.79 212.95 435.31 219.4 433.79 226.82C433.27 229.34 432.82 231.87 432.99 234.46C433.08 235.74 432.75 236.48 431.23 236.47C426.33 236.44 421.44 236.47 416.55 236.89C413.02 237.19 413 236.95 412.99 233.52C412.99 233.19 412.99 232.85 412.99 232.52L413 232.51Z" fill="#E9E9E9"/>
<path d="M243.52 399.6C243.52 404.41 243.52 404.54 238.6 404.37C234.13 404.21 229.66 403.73 225.18 403.92C223.81 403.98 223.5 403.26 223.52 402.07C223.63 391.44 219.57 382.4 212.78 374.45C212.08 373.63 212.08 373.09 212.82 372.36C216.9 368.32 220.95 364.25 225.01 360.19C225.61 359.59 226.13 359.31 226.86 360.13C235.46 369.77 241.14 380.81 243.03 393.68C243.17 394.66 243.42 395.63 243.5 396.61C243.58 397.6 243.52 398.61 243.52 399.6Z" fill="#E9E9E9"/>
<path d="M243.52 143.19C243.52 148.47 243.52 148.56 238.54 148.44C234.15 148.33 229.77 147.74 225.37 147.98C223.94 148.06 223.44 147.45 223.51 146.07C223.77 140.48 222.26 135.27 220.17 130.15C218.45 125.95 215.94 122.28 213.07 118.84C212.21 117.81 211.97 117.21 213.02 116.19C217.01 112.3 220.93 108.33 224.86 104.38C225.63 103.61 226.12 103.41 227.03 104.42C234.56 112.8 239.77 122.38 242.22 133.4C242.96 136.71 243.75 140.02 243.51 143.19H243.52Z" fill="#E9E9E9"/>
<path d="M555.43 255.94C559.26 255.92 563 259.66 562.97 263.47C562.94 267.18 559.29 270.88 555.61 270.93C551.17 270.99 547.99 267.9 547.98 263.52C547.97 259.05 551.01 255.95 555.43 255.93V255.94Z" fill="#E9E9E9"/>
<path d="M455.79 308.43C459.84 308.44 462.99 311.61 462.99 315.68C462.99 319.97 459.75 323.35 455.57 323.42C451.82 323.48 448.01 319.72 447.99 315.94C447.97 311.53 451.2 308.41 455.78 308.42L455.79 308.43Z" fill="#E9E9E9"/>
<path d="M547.98 7.48997C547.98 3.06997 551.1 -0.0200255 555.53 -2.5548e-05C559.23 0.0199745 562.89 3.63997 562.98 7.37997C563.07 11.16 559.33 14.98 555.52 15C551.09 15.02 547.98 11.92 547.99 7.49997L547.98 7.48997Z" fill="#E9E9E9"/>
<path d="M455.8 52.49C459.85 52.5 462.99 55.68 462.99 59.76C462.99 64.05 459.73 67.43 455.56 67.48C451.81 67.53 448 63.76 448 59.99C448 55.58 451.22 52.48 455.8 52.49Z" fill="#E9E9E9"/>
<path d="M265.02 184.47C265.02 188.73 261.68 192.01 257.4 191.95C253.66 191.9 250.1 188.33 250.03 184.55C249.96 180.71 253.61 176.98 257.46 176.96C261.81 176.93 265.03 180.13 265.03 184.47H265.02Z" fill="#E9E9E9"/>
<path d="M292.01 404.15C292.01 399.86 294.88 396.94 299.14 396.91C303.55 396.88 306.73 399.94 306.84 404.3C306.93 408.06 303.21 411.96 299.34 411.86C295.1 411.75 291.53 408.47 292.01 404.16V404.15Z" fill="#E9E9E9"/>
<path d="M406.5 351.95C406.49 356.2 403.13 359.47 398.86 359.41C395.18 359.36 391.4 355.66 391.54 351.96C391.7 347.96 394.44 344.54 398.93 344.43C403.21 344.32 406.51 347.67 406.5 351.95Z" fill="#E9E9E9"/>
<path d="M350.01 236.52C350.05 232.5 353.3 229.4 357.42 229.44C361.53 229.48 365.1 232.96 364.99 236.81C364.88 240.84 361.17 244.72 357.24 244.35C353.38 243.98 349.93 242.12 350.01 236.52Z" fill="#E9E9E9"/>
<path d="M292.01 148.18C292.01 143.9 294.9 140.99 299.17 140.96C303.57 140.94 306.77 144.02 306.84 148.37C306.91 152.14 303.17 156.03 299.31 155.9C295.07 155.76 291.52 152.51 292.01 148.17V148.18Z" fill="#E9E9E9"/>
<path d="M406.5 96.0401C406.47 100.28 403.1 103.55 398.83 103.47C395.16 103.41 391.38 99.68 391.54 95.99C391.72 91.98 394.48 88.58 398.96 88.49C403.23 88.4 406.52 91.7601 406.5 96.0401Z" fill="#E9E9E9"/>
</g>
<defs>
<clipPath id="clip0_44_24">
<rect width="736.45" height="411.85" fill="white"/>
</clipPath>
</defs>
</svg>
